<svg xmlns="http://www.w3.org/2000/svg" xmlns:xlink="http://www.w3.org/1999/xlink" contentStyleType="text/css" height="991px" preserveAspectRatio="none" style="width:618px;height:991px;background:#FFFFFF;" version="1.1" viewBox="0 0 618 991" width="618px" zoomAndPan="magnify"><defs/><g><!--class Users--><g id="elem_Users"><rect codeLine="1" fill="#F1F1F1" height="178.375" id="Users" rx="2.5" ry="2.5" style="stroke:#181818;stroke-width:0.5;" width="175.0918" x="7" y="254.22"/><ellipse cx="70.6938" cy="270.22" fill="#ADD1B2" rx="11" ry="11" style="stroke:#181818;stroke-width:1.0;"/><path d="M73.6626,275.8606 Q73.0845,276.1575 72.4438,276.2981 Q71.8032,276.4544 71.1001,276.4544 Q68.6001,276.4544 67.272,274.8138 Q65.9595,273.1575 65.9595,270.0325 Q65.9595,266.9075 67.272,265.2513 Q68.6001,263.595 71.1001,263.595 Q71.8032,263.595 72.4438,263.7513 Q73.1001,263.9075 73.6626,264.2044 L73.6626,266.9231 Q73.0376,266.345 72.4438,266.0794 Q71.8501,265.7981 71.2251,265.7981 Q69.8813,265.7981 69.1938,266.8763 Q68.5063,267.9388 68.5063,270.0325 Q68.5063,272.1263 69.1938,273.2044 Q69.8813,274.2669 71.2251,274.2669 Q71.8501,274.2669 72.4438,274.0013 Q73.0376,273.72 73.6626,273.1419 L73.6626,275.8606 Z " fill="#000000"/><text fill="#000000" font-family="sans-serif" font-size="14" lengthAdjust="spacing" textLength="39.2041" x="91.1938" y="275.0667">Users</text><line style="stroke:#181818;stroke-width:0.5;" x1="8" x2="181.0918" y1="286.22" y2="286.22"/><ellipse cx="18" cy="299.8684" fill="none" rx="3" ry="3" style="stroke:#038048;stroke-width:1.0;"/><text fill="#000000" font-family="sans-serif" font-size="14" lengthAdjust="spacing" textLength="40.3799" x="27" y="303.2151">INT id</text><ellipse cx="18" cy="316.1653" fill="none" rx="3" ry="3" style="stroke:#038048;stroke-width:1.0;"/><text fill="#000000" font-family="sans-serif" font-size="14" lengthAdjust="spacing" textLength="112.6426" x="27" y="319.512">VARCHAR name</text><ellipse cx="18" cy="332.4622" fill="none" rx="3" ry="3" style="stroke:#038048;stroke-width:1.0;"/><text fill="#000000" font-family="sans-serif" font-size="14" lengthAdjust="spacing" textLength="134.5654" x="27" y="335.8089">VARCHAR surname</text><ellipse cx="18" cy="348.7591" fill="none" rx="3" ry="3" style="stroke:#038048;stroke-width:1.0;"/><text fill="#000000" font-family="sans-serif" font-size="14" lengthAdjust="spacing" textLength="111.5488" x="27" y="352.1057">VARCHAR email</text><ellipse cx="18" cy="365.0559" fill="none" rx="3" ry="3" style="stroke:#038048;stroke-width:1.0;"/><text fill="#000000" font-family="sans-serif" font-size="14" lengthAdjust="spacing" textLength="139.6514" x="27" y="368.4026">VARCHAR password</text><ellipse cx="18" cy="381.3528" fill="none" rx="3" ry="3" style="stroke:#038048;stroke-width:1.0;"/><text fill="#000000" font-family="sans-serif" font-size="14" lengthAdjust="spacing" textLength="104.6855" x="27" y="384.6995">DECIMAL solde</text><ellipse cx="18" cy="397.6497" fill="none" rx="3" ry="3" style="stroke:#038048;stroke-width:1.0;"/><text fill="#000000" font-family="sans-serif" font-size="14" lengthAdjust="spacing" textLength="144.5117" x="27" y="400.9964">DATETIME createdAt</text><ellipse cx="18" cy="413.9466" fill="none" rx="3" ry="3" style="stroke:#038048;stroke-width:1.0;"/><text fill="#000000" font-family="sans-serif" font-size="14" lengthAdjust="spacing" textLength="149.0918" x="27" y="417.2932">DATETIME updatedAt</text><line style="stroke:#181818;stroke-width:0.5;" x1="8" x2="181.0918" y1="424.595" y2="424.595"/></g><!--class Teams--><g id="elem_Teams"><rect codeLine="12" fill="#F1F1F1" height="162.0781" id="Teams" rx="2.5" ry="2.5" style="stroke:#181818;stroke-width:0.5;" width="175.0918" x="324" y="7"/><ellipse cx="383.958" cy="23" fill="#ADD1B2" rx="11" ry="11" style="stroke:#181818;stroke-width:1.0;"/><path d="M386.9268,28.6406 Q386.3486,28.9375 385.708,29.0781 Q385.0674,29.2344 384.3643,29.2344 Q381.8643,29.2344 380.5361,27.5938 Q379.2236,25.9375 379.2236,22.8125 Q379.2236,19.6875 380.5361,18.0313 Q381.8643,16.375 384.3643,16.375 Q385.0674,16.375 385.708,16.5313 Q386.3643,16.6875 386.9268,16.9844 L386.9268,19.7031 Q386.3018,19.125 385.708,18.8594 Q385.1143,18.5781 384.4893,18.5781 Q383.1455,18.5781 382.458,19.6563 Q381.7705,20.7188 381.7705,22.8125 Q381.7705,24.9063 382.458,25.9844 Q383.1455,27.0469 384.4893,27.0469 Q385.1143,27.0469 385.708,26.7813 Q386.3018,26.5 386.9268,25.9219 L386.9268,28.6406 Z " fill="#000000"/><text fill="#000000" font-family="sans-serif" font-size="14" lengthAdjust="spacing" textLength="46.6758" x="404.458" y="27.8467">Teams</text><line style="stroke:#181818;stroke-width:0.5;" x1="325" x2="498.0918" y1="39" y2="39"/><ellipse cx="335" cy="52.6484" fill="none" rx="3" ry="3" style="stroke:#038048;stroke-width:1.0;"/><text fill="#000000" font-family="sans-serif" font-size="14" lengthAdjust="spacing" textLength="40.3799" x="344" y="55.9951">INT id</text><ellipse cx="335" cy="68.9453" fill="none" rx="3" ry="3" style="stroke:#038048;stroke-width:1.0;"/><text fill="#000000" font-family="sans-serif" font-size="14" lengthAdjust="spacing" textLength="112.6426" x="344" y="72.292">VARCHAR name</text><ellipse cx="335" cy="85.2422" fill="none" rx="3" ry="3" style="stroke:#038048;stroke-width:1.0;"/><text fill="#000000" font-family="sans-serif" font-size="14" lengthAdjust="spacing" textLength="102.8467" x="344" y="88.5889">VARCHAR logo</text><ellipse cx="335" cy="101.5391" fill="none" rx="3" ry="3" style="stroke:#038048;stroke-width:1.0;"/><text fill="#000000" font-family="sans-serif" font-size="14" lengthAdjust="spacing" textLength="126.4785" x="344" y="104.8857">VARCHAR country</text><ellipse cx="335" cy="117.8359" fill="none" rx="3" ry="3" style="stroke:#038048;stroke-width:1.0;"/><text fill="#000000" font-family="sans-serif" font-size="14" lengthAdjust="spacing" textLength="120.3945" x="344" y="121.1826">VARCHAR league</text><ellipse cx="335" cy="134.1328" fill="none" rx="3" ry="3" style="stroke:#038048;stroke-width:1.0;"/><text fill="#000000" font-family="sans-serif" font-size="14" lengthAdjust="spacing" textLength="144.5117" x="344" y="137.4795">DATETIME createdAt</text><ellipse cx="335" cy="150.4297" fill="none" rx="3" ry="3" style="stroke:#038048;stroke-width:1.0;"/><text fill="#000000" font-family="sans-serif" font-size="14" lengthAdjust="spacing" textLength="149.0918" x="344" y="153.7764">DATETIME updatedAt</text><line style="stroke:#181818;stroke-width:0.5;" x1="325" x2="498.0918" y1="161.0781" y2="161.0781"/></g><!--class Players--><g id="elem_Players"><rect codeLine="22" fill="#F1F1F1" height="194.6719" id="Players" rx="2.5" ry="2.5" style="stroke:#181818;stroke-width:0.5;" width="175.0918" x="217" y="246.07"/><ellipse cx="274.8662" cy="262.07" fill="#ADD1B2" rx="11" ry="11" style="stroke:#181818;stroke-width:1.0;"/><path d="M277.835,267.7106 Q277.2568,268.0075 276.6162,268.1481 Q275.9756,268.3044 275.2725,268.3044 Q272.7725,268.3044 271.4443,266.6638 Q270.1318,265.0075 270.1318,261.8825 Q270.1318,258.7575 271.4443,257.1013 Q272.7725,255.445 275.2725,255.445 Q275.9756,255.445 276.6162,255.6013 Q277.2725,255.7575 277.835,256.0544 L277.835,258.7731 Q277.21,258.195 276.6162,257.9294 Q276.0225,257.6481 275.3975,257.6481 Q274.0537,257.6481 273.3662,258.7263 Q272.6787,259.7888 272.6787,261.8825 Q272.6787,263.9763 273.3662,265.0544 Q274.0537,266.1169 275.3975,266.1169 Q276.0225,266.1169 276.6162,265.8513 Q277.21,265.57 277.835,264.9919 L277.835,267.7106 Z " fill="#000000"/><text fill="#000000" font-family="sans-serif" font-size="14" lengthAdjust="spacing" textLength="50.8594" x="295.3662" y="266.9167">Players</text><line style="stroke:#181818;stroke-width:0.5;" x1="218" x2="391.0918" y1="278.07" y2="278.07"/><ellipse cx="228" cy="291.7184" fill="none" rx="3" ry="3" style="stroke:#038048;stroke-width:1.0;"/><text fill="#000000" font-family="sans-serif" font-size="14" lengthAdjust="spacing" textLength="40.3799" x="237" y="295.0651">INT id</text><ellipse cx="228" cy="308.0153" fill="none" rx="3" ry="3" style="stroke:#038048;stroke-width:1.0;"/><text fill="#000000" font-family="sans-serif" font-size="14" lengthAdjust="spacing" textLength="112.6426" x="237" y="311.362">VARCHAR name</text><ellipse cx="228" cy="324.3122" fill="none" rx="3" ry="3" style="stroke:#038048;stroke-width:1.0;"/><text fill="#000000" font-family="sans-serif" font-size="14" lengthAdjust="spacing" textLength="134.5654" x="237" y="327.6589">VARCHAR surname</text><ellipse cx="228" cy="340.6091" fill="none" rx="3" ry="3" style="stroke:#038048;stroke-width:1.0;"/><text fill="#000000" font-family="sans-serif" font-size="14" lengthAdjust="spacing" textLength="90.9932" x="237" y="343.9557">INT teams_id</text><ellipse cx="228" cy="356.9059" fill="none" rx="3" ry="3" style="stroke:#038048;stroke-width:1.0;"/><text fill="#000000" font-family="sans-serif" font-size="14" lengthAdjust="spacing" textLength="147.3418" x="237" y="360.2526">VARCHAR nationality</text><ellipse cx="228" cy="373.2028" fill="none" rx="3" ry="3" style="stroke:#038048;stroke-width:1.0;"/><text fill="#000000" font-family="sans-serif" font-size="14" lengthAdjust="spacing" textLength="84.9434" x="237" y="376.5495">ENUM poste</text><ellipse cx="228" cy="389.4997" fill="none" rx="3" ry="3" style="stroke:#038048;stroke-width:1.0;"/><text fill="#000000" font-family="sans-serif" font-size="14" lengthAdjust="spacing" textLength="82.9063" x="237" y="392.8464">INT nb_buts</text><ellipse cx="228" cy="405.7966" fill="none" rx="3" ry="3" style="stroke:#038048;stroke-width:1.0;"/><text fill="#000000" font-family="sans-serif" font-size="14" lengthAdjust="spacing" textLength="144.5117" x="237" y="409.1432">DATETIME createdAt</text><ellipse cx="228" cy="422.0934" fill="none" rx="3" ry="3" style="stroke:#038048;stroke-width:1.0;"/><text fill="#000000" font-family="sans-serif" font-size="14" lengthAdjust="spacing" textLength="149.0918" x="237" y="425.4401">DATETIME updatedAt</text><line style="stroke:#181818;stroke-width:0.5;" x1="218" x2="391.0918" y1="432.7419" y2="432.7419"/></g><!--class Matches--><g id="elem_Matches"><rect codeLine="34" fill="#F1F1F1" height="194.6719" id="Matches" rx="2.5" ry="2.5" style="stroke:#181818;stroke-width:0.5;" width="184.6553" x="427.22" y="246.07"/><ellipse cx="485.9851" cy="262.07" fill="#ADD1B2" rx="11" ry="11" style="stroke:#181818;stroke-width:1.0;"/><path d="M488.9539,267.7106 Q488.3758,268.0075 487.7351,268.1481 Q487.0945,268.3044 486.3914,268.3044 Q483.8914,268.3044 482.5633,266.6638 Q481.2508,265.0075 481.2508,261.8825 Q481.2508,258.7575 482.5633,257.1013 Q483.8914,255.445 486.3914,255.445 Q487.0945,255.445 487.7351,255.6013 Q488.3914,255.7575 488.9539,256.0544 L488.9539,258.7731 Q488.3289,258.195 487.7351,257.9294 Q487.1414,257.6481 486.5164,257.6481 Q485.1726,257.6481 484.4851,258.7263 Q483.7976,259.7888 483.7976,261.8825 Q483.7976,263.9763 484.4851,265.0544 Q485.1726,266.1169 486.5164,266.1169 Q487.1414,266.1169 487.7351,265.8513 Q488.3289,265.57 488.9539,264.9919 L488.9539,267.7106 Z " fill="#000000"/><text fill="#000000" font-family="sans-serif" font-size="14" lengthAdjust="spacing" textLength="58.625" x="506.4851" y="266.9167">Matches</text><line style="stroke:#181818;stroke-width:0.5;" x1="428.22" x2="610.8753" y1="278.07" y2="278.07"/><ellipse cx="438.22" cy="291.7184" fill="none" rx="3" ry="3" style="stroke:#038048;stroke-width:1.0;"/><text fill="#000000" font-family="sans-serif" font-size="14" lengthAdjust="spacing" textLength="40.3799" x="447.22" y="295.0651">INT id</text><ellipse cx="438.22" cy="308.0153" fill="none" rx="3" ry="3" style="stroke:#038048;stroke-width:1.0;"/><text fill="#000000" font-family="sans-serif" font-size="14" lengthAdjust="spacing" textLength="99.6064" x="447.22" y="311.362">INT id_team_1</text><ellipse cx="438.22" cy="324.3122" fill="none" rx="3" ry="3" style="stroke:#038048;stroke-width:1.0;"/><text fill="#000000" font-family="sans-serif" font-size="14" lengthAdjust="spacing" textLength="99.6064" x="447.22" y="327.6589">INT id_team_2</text><ellipse cx="438.22" cy="340.6091" fill="none" rx="3" ry="3" style="stroke:#038048;stroke-width:1.0;"/><text fill="#000000" font-family="sans-serif" font-size="14" lengthAdjust="spacing" textLength="128.4883" x="447.22" y="343.9557">VARCHAR location</text><ellipse cx="438.22" cy="356.9059" fill="none" rx="3" ry="3" style="stroke:#038048;stroke-width:1.0;"/><text fill="#000000" font-family="sans-serif" font-size="14" lengthAdjust="spacing" textLength="158.6553" x="447.22" y="360.2526">DATETIME match_date</text><ellipse cx="438.22" cy="373.2028" fill="none" rx="3" ry="3" style="stroke:#038048;stroke-width:1.0;"/><text fill="#000000" font-family="sans-serif" font-size="14" lengthAdjust="spacing" textLength="119.1025" x="447.22" y="376.5495">ENUM status_bet</text><ellipse cx="438.22" cy="389.4997" fill="none" rx="3" ry="3" style="stroke:#038048;stroke-width:1.0;"/><text fill="#000000" font-family="sans-serif" font-size="14" lengthAdjust="spacing" textLength="140.3896" x="447.22" y="392.8464">ENUM status_match</text><ellipse cx="438.22" cy="405.7966" fill="none" rx="3" ry="3" style="stroke:#038048;stroke-width:1.0;"/><text fill="#000000" font-family="sans-serif" font-size="14" lengthAdjust="spacing" textLength="144.5117" x="447.22" y="409.1432">DATETIME createdAt</text><ellipse cx="438.22" cy="422.0934" fill="none" rx="3" ry="3" style="stroke:#038048;stroke-width:1.0;"/><text fill="#000000" font-family="sans-serif" font-size="14" lengthAdjust="spacing" textLength="149.0918" x="447.22" y="425.4401">DATETIME updatedAt</text><line style="stroke:#181818;stroke-width:0.5;" x1="428.22" x2="610.8753" y1="432.7419" y2="432.7419"/></g><!--class Bets--><g id="elem_Bets"><rect codeLine="46" fill="#F1F1F1" height="210.9688" id="Bets" rx="2.5" ry="2.5" style="stroke:#181818;stroke-width:0.5;" width="186.959" x="202.07" y="517.75"/><ellipse cx="275.799" cy="533.75" fill="#ADD1B2" rx="11" ry="11" style="stroke:#181818;stroke-width:1.0;"/><path d="M278.7678,539.3906 Q278.1896,539.6875 277.549,539.8281 Q276.9084,539.9844 276.2053,539.9844 Q273.7053,539.9844 272.3771,538.3438 Q271.0646,536.6875 271.0646,533.5625 Q271.0646,530.4375 272.3771,528.7813 Q273.7053,527.125 276.2053,527.125 Q276.9084,527.125 277.549,527.2813 Q278.2053,527.4375 278.7678,527.7344 L278.7678,530.4531 Q278.1428,529.875 277.549,529.6094 Q276.9553,529.3281 276.3303,529.3281 Q274.9865,529.3281 274.299,530.4063 Q273.6115,531.4688 273.6115,533.5625 Q273.6115,535.6563 274.299,536.7344 Q274.9865,537.7969 276.3303,537.7969 Q276.9553,537.7969 277.549,537.5313 Q278.1428,537.25 278.7678,536.6719 L278.7678,539.3906 Z " fill="#000000"/><text fill="#000000" font-family="sans-serif" font-size="14" lengthAdjust="spacing" textLength="31.001" x="296.299" y="538.5967">Bets</text><line style="stroke:#181818;stroke-width:0.5;" x1="203.07" x2="388.029" y1="549.75" y2="549.75"/><ellipse cx="213.07" cy="563.3984" fill="none" rx="3" ry="3" style="stroke:#038048;stroke-width:1.0;"/><text fill="#000000" font-family="sans-serif" font-size="14" lengthAdjust="spacing" textLength="40.3799" x="222.07" y="566.7451">INT id</text><ellipse cx="213.07" cy="579.6953" fill="none" rx="3" ry="3" style="stroke:#038048;stroke-width:1.0;"/><text fill="#000000" font-family="sans-serif" font-size="14" lengthAdjust="spacing" textLength="77.916" x="222.07" y="583.042">INT user_id</text><ellipse cx="213.07" cy="595.9922" fill="none" rx="3" ry="3" style="stroke:#038048;stroke-width:1.0;"/><text fill="#000000" font-family="sans-serif" font-size="14" lengthAdjust="spacing" textLength="91.6563" x="222.07" y="599.3389">INT match_id</text><ellipse cx="213.07" cy="612.2891" fill="none" rx="3" ry="3" style="stroke:#038048;stroke-width:1.0;"/><text fill="#000000" font-family="sans-serif" font-size="14" lengthAdjust="spacing" textLength="126.9434" x="222.07" y="615.6357">DECIMAL montant</text><ellipse cx="213.07" cy="628.5859" fill="none" rx="3" ry="3" style="stroke:#038048;stroke-width:1.0;"/><text fill="#000000" font-family="sans-serif" font-size="14" lengthAdjust="spacing" textLength="97.8018" x="222.07" y="631.9326">DECIMAL cote</text><ellipse cx="213.07" cy="644.8828" fill="none" rx="3" ry="3" style="stroke:#038048;stroke-width:1.0;"/><text fill="#000000" font-family="sans-serif" font-size="14" lengthAdjust="spacing" textLength="160.959" x="222.07" y="648.2295">DECIMAL potentiel_win</text><ellipse cx="213.07" cy="661.1797" fill="none" rx="3" ry="3" style="stroke:#038048;stroke-width:1.0;"/><text fill="#000000" font-family="sans-serif" font-size="14" lengthAdjust="spacing" textLength="91.3896" x="222.07" y="664.5264">INT player_id</text><ellipse cx="213.07" cy="677.4766" fill="none" rx="3" ry="3" style="stroke:#038048;stroke-width:1.0;"/><text fill="#000000" font-family="sans-serif" font-size="14" lengthAdjust="spacing" textLength="119.1025" x="222.07" y="680.8232">ENUM bet_status</text><ellipse cx="213.07" cy="693.7734" fill="none" rx="3" ry="3" style="stroke:#038048;stroke-width:1.0;"/><text fill="#000000" font-family="sans-serif" font-size="14" lengthAdjust="spacing" textLength="144.5117" x="222.07" y="697.1201">DATETIME createdAt</text><ellipse cx="213.07" cy="710.0703" fill="none" rx="3" ry="3" style="stroke:#038048;stroke-width:1.0;"/><text fill="#000000" font-family="sans-serif" font-size="14" lengthAdjust="spacing" textLength="140.2051" x="222.07" y="713.417">DATETIME updateAt</text><line style="stroke:#181818;stroke-width:0.5;" x1="203.07" x2="388.029" y1="720.7188" y2="720.7188"/></g><!--class Transactions--><g id="elem_Transactions"><rect codeLine="59" fill="#F1F1F1" height="178.375" id="Transactions" rx="2.5" ry="2.5" style="stroke:#181818;stroke-width:0.5;" width="239.0283" x="21.03" y="805.71"/><ellipse cx="91.5735" cy="821.71" fill="#ADD1B2" rx="11" ry="11" style="stroke:#181818;stroke-width:1.0;"/><path d="M94.5422,827.3506 Q93.9641,827.6475 93.3235,827.7881 Q92.6828,827.9444 91.9797,827.9444 Q89.4797,827.9444 88.1516,826.3038 Q86.8391,824.6475 86.8391,821.5225 Q86.8391,818.3975 88.1516,816.7413 Q89.4797,815.085 91.9797,815.085 Q92.6828,815.085 93.3235,815.2413 Q93.9797,815.3975 94.5422,815.6944 L94.5422,818.4131 Q93.9172,817.835 93.3235,817.5694 Q92.7297,817.2881 92.1047,817.2881 Q90.761,817.2881 90.0735,818.3663 Q89.386,819.4288 89.386,821.5225 Q89.386,823.6163 90.0735,824.6944 Q90.761,825.7569 92.1047,825.7569 Q92.7297,825.7569 93.3235,825.4913 Q93.9172,825.21 94.5422,824.6319 L94.5422,827.3506 Z " fill="#000000"/><text fill="#000000" font-family="sans-serif" font-size="14" lengthAdjust="spacing" textLength="89.4414" x="112.0735" y="826.5567">Transactions</text><line style="stroke:#181818;stroke-width:0.5;" x1="22.03" x2="259.0583" y1="837.71" y2="837.71"/><ellipse cx="32.03" cy="851.3584" fill="none" rx="3" ry="3" style="stroke:#038048;stroke-width:1.0;"/><text fill="#000000" font-family="sans-serif" font-size="14" lengthAdjust="spacing" textLength="40.3799" x="41.03" y="854.7051">INT id</text><ellipse cx="32.03" cy="867.6553" fill="none" rx="3" ry="3" style="stroke:#038048;stroke-width:1.0;"/><text fill="#000000" font-family="sans-serif" font-size="14" lengthAdjust="spacing" textLength="77.916" x="41.03" y="871.002">INT user_id</text><ellipse cx="32.03" cy="883.9522" fill="none" rx="3" ry="3" style="stroke:#038048;stroke-width:1.0;"/><text fill="#000000" font-family="sans-serif" font-size="14" lengthAdjust="spacing" textLength="163.4541" x="41.03" y="887.2989">ENUM transaction_type</text><ellipse cx="32.03" cy="900.2491" fill="none" rx="3" ry="3" style="stroke:#038048;stroke-width:1.0;"/><text fill="#000000" font-family="sans-serif" font-size="14" lengthAdjust="spacing" textLength="213.0283" x="41.03" y="903.5957">DECIMAL transaction_montant</text><ellipse cx="32.03" cy="916.5459" fill="none" rx="3" ry="3" style="stroke:#038048;stroke-width:1.0;"/><text fill="#000000" font-family="sans-serif" font-size="14" lengthAdjust="spacing" textLength="193.4639" x="41.03" y="919.8926">DATETIME transaction_date</text><ellipse cx="32.03" cy="932.8428" fill="none" rx="3" ry="3" style="stroke:#038048;stroke-width:1.0;"/><text fill="#000000" font-family="sans-serif" font-size="14" lengthAdjust="spacing" textLength="144.5117" x="41.03" y="936.1895">DATETIME createdAt</text><ellipse cx="32.03" cy="949.1397" fill="none" rx="3" ry="3" style="stroke:#038048;stroke-width:1.0;"/><text fill="#000000" font-family="sans-serif" font-size="14" lengthAdjust="spacing" textLength="149.0918" x="41.03" y="952.4864">DATETIME updatedAt</text><ellipse cx="32.03" cy="965.4366" fill="none" rx="3" ry="3" style="stroke:#038048;stroke-width:1.0;"/><text fill="#000000" font-family="sans-serif" font-size="14" lengthAdjust="spacing" textLength="77.6631" x="41.03" y="968.7832">INT bets_id</text><line style="stroke:#181818;stroke-width:0.5;" x1="22.03" x2="259.0583" y1="976.085" y2="976.085"/></g><!--link Users to Bets--><g id="link_Users_Bets"><path codeLine="70" d="M158.7,433.08 C178.11,459.92 196.1025,484.7792 216.2125,512.5692 " fill="none" id="Users-to-Bets" style="stroke:#181818;stroke-width:1.0;"/><polygon fill="#181818" points="219.73,517.43,217.6943,507.7938,216.7988,513.3793,211.2133,512.4838,219.73,517.43" style="stroke:#181818;stroke-width:1.0;"/><text fill="#000000" font-family="sans-serif" font-size="13" lengthAdjust="spacing" textLength="46.7188" x="196.55" y="483.8169">user_id</text><text fill="#000000" font-family="sans-serif" font-size="13" lengthAdjust="spacing" textLength="8.271" x="155.3159" y="452.5917">1</text><text fill="#000000" font-family="sans-serif" font-size="13" lengthAdjust="spacing" textLength="23.0356" x="190.5916" y="506.5348">0..*</text></g><!--link Users to Transactions--><g id="link_Users_Transactions"><path codeLine="71" d="M101.96,433 C110.54,535.45 124.0695,697.1309 132.6395,799.5109 " fill="none" id="Users-to-Transactions" style="stroke:#181818;stroke-width:1.0;"/><polygon fill="#181818" points="133.14,805.49,136.3753,796.1877,132.7229,800.5074,128.4032,796.855,133.14,805.49" style="stroke:#181818;stroke-width:1.0;"/><text fill="#000000" font-family="sans-serif" font-size="13" lengthAdjust="spacing" textLength="46.7188" x="127.55" y="627.7969">user_id</text><text fill="#000000" font-family="sans-serif" font-size="13" lengthAdjust="spacing" textLength="8.271" x="94.2429" y="452.8092">1</text><text fill="#000000" font-family="sans-serif" font-size="13" lengthAdjust="spacing" textLength="23.0356" x="108.576" y="794.5372">0..*</text></g><!--link Teams to Players--><g id="link_Teams_Players"><path codeLine="72" d="M377.54,169.55 C367.32,193.75 358.3456,215.0333 347.7256,240.1633 " fill="none" id="Teams-to-Players" style="stroke:#181818;stroke-width:1.0;"/><polygon fill="#181818" points="345.39,245.69,352.5779,238.957,347.3363,241.0844,345.2089,235.8428,345.39,245.69" style="stroke:#181818;stroke-width:1.0;"/><text fill="#000000" font-family="sans-serif" font-size="13" lengthAdjust="spacing" textLength="58.8618" x="365.55" y="212.1369">teams_id</text><text fill="#000000" font-family="sans-serif" font-size="13" lengthAdjust="spacing" textLength="8.271" x="366.2855" y="189.272">1</text><text fill="#000000" font-family="sans-serif" font-size="13" lengthAdjust="spacing" textLength="23.0356" x="324.5463" y="235.035">0..*</text></g><!--link Players to Bets--><g id="link_Players_Bets"><path codeLine="73" d="M301.41,441.19 C300.61,465.77 299.9421,486.3131 299.1421,511.2831 " fill="none" id="Players-to-Bets" style="stroke:#181818;stroke-width:1.0;"/><polygon fill="#181818" points="298.95,517.28,303.2361,508.4127,299.1101,512.2826,295.2402,508.1565,298.95,517.28" style="stroke:#181818;stroke-width:1.0;"/><text fill="#000000" font-family="sans-serif" font-size="13" lengthAdjust="spacing" textLength="59.23" x="301.55" y="483.8169">player_id</text><text fill="#000000" font-family="sans-serif" font-size="13" lengthAdjust="spacing" textLength="8.271" x="292.9178" y="460.6643">1</text><text fill="#000000" font-family="sans-serif" font-size="13" lengthAdjust="spacing" textLength="23.0356" x="275.407" y="506.7286">0..*</text></g><!--link Teams to Matches--><g id="link_Teams_Matches"><path codeLine="74" d="M445.87,169.55 C456.18,193.75 465.2576,215.0404 475.9676,240.1704 " fill="none" id="Teams-to-Matches" style="stroke:#181818;stroke-width:1.0;"/><polygon fill="#181818" points="478.32,245.69,478.4712,235.8423,476.3597,241.0903,471.1117,238.9788,478.32,245.69" style="stroke:#181818;stroke-width:1.0;"/><text fill="#000000" font-family="sans-serif" font-size="13" lengthAdjust="spacing" textLength="141.9844" x="466.55" y="212.1369">id_team_1, id_team_2</text><text fill="#000000" font-family="sans-serif" font-size="13" lengthAdjust="spacing" textLength="8.271" x="440.4876" y="189.272">1</text><text fill="#000000" font-family="sans-serif" font-size="13" lengthAdjust="spacing" textLength="23.0356" x="451.4491" y="235.035">0..*</text></g><!--link Matches to Bets--><g id="link_Matches_Bets"><path codeLine="75" d="M441.52,441.19 C421.69,465.77 404.0657,487.6389 383.9357,512.6089 " fill="none" id="Matches-to-Bets" style="stroke:#181818;stroke-width:1.0;"/><polygon fill="#181818" points="380.17,517.28,388.9326,512.7838,383.3081,513.3874,382.7045,507.7628,380.17,517.28" style="stroke:#181818;stroke-width:1.0;"/><text fill="#000000" font-family="sans-serif" font-size="13" lengthAdjust="spacing" textLength="59.4775" x="414.55" y="483.8169">match_id</text><text fill="#000000" font-family="sans-serif" font-size="13" lengthAdjust="spacing" textLength="8.271" x="427.762" y="460.6643">1</text><text fill="#000000" font-family="sans-serif" font-size="13" lengthAdjust="spacing" textLength="23.0356" x="362.084" y="506.7286">0..*</text></g><!--link Bets to Transactions--><g id="link_Bets_Transactions"><path codeLine="76" d="M235.4,728.88 C220.85,754.2 208.419,775.8075 194.349,800.2975 " fill="none" id="Bets-to-Transactions" style="stroke:#181818;stroke-width:1.0;"/><polygon fill="#181818" points="191.36,805.5,199.3118,799.6889,193.8508,801.1646,192.3751,795.7036,191.36,805.5" style="stroke:#181818;stroke-width:1.0;"/><text fill="#000000" font-family="sans-serif" font-size="13" lengthAdjust="spacing" textLength="46.4839" x="219.55" y="771.7769">bets_id</text><text fill="#000000" font-family="sans-serif" font-size="13" lengthAdjust="spacing" textLength="8.271" x="222.899" y="748.9071">1</text><text fill="#000000" font-family="sans-serif" font-size="13" lengthAdjust="spacing" textLength="23.0356" x="171.6173" y="794.5481">0..*</text></g><!--SRC=[fPJBQiCm44Nt-GhXPTk4fiii2cvYgA4E9JZT2aKMgK2MZ3KcXD9_hom_v5TBasJbNC-CxXdDc0gYDTfhbclqDKFcTnzkOyIJwld3twrV_HsI96LzHHVvM6GfuQ8lPQR-IULrlKsm3YF_3MabaZftuyT174O1eZaZm18V1dgH9RN-FPjHwpTc9BtGhr17rLUeAYJavq4O8yVY1cVlWfnlwsMP0YKV7YS2Lv883hNfOBkFKAOqT5Bb0HyAqDSJH0Je9viag9vnwGulnzBJiEFK6XuScPRrSNbi1q83WKBZ0uEnQ1EkvtbXy2jCOUOUTuNA71zCQwea40bzaQg6e54oeqZWJE0JbwvcPaUYBMhH32Yky2u2w-r0JgGcjEpm__ZimU2oC9op0K7tRH-wyT6DS7TumRsqtamBx8WReEhpuoqzD9y_8-zniRZpgdjRjGYJCRqUkDZgyp28RJPpvRQhaQPFTlSsMQ_PavLRYOVEAZIlfsktSsR__qrLD-e7]--></g></svg>